<svg width="24" height="24" viewBox="0 0 24 24" fill="none" xmlns="http://www.w3.org/2000/svg">
<g clip-path="url(#clip0_42_198)">
<path fill-rule="evenodd" clip-rule="evenodd" d="M8.79951 2.63013C8.86572 2.34749 8.9946 2.07529 9.18781 1.83486C9.84942 1.01152 11.0372 0.844593 11.9001 1.45366C12.1527 1.63192 12.3519 1.85866 12.4935 2.11277C15.4793 2.54725 18.088 5.02564 18.6529 9.04531C19.0182 11.6444 19.7504 13.0338 20.874 13.961C21.1525 14.1908 22.1083 14.8353 22.217 14.9184C22.4258 15.078 22.5633 15.3134 22.5999 15.5736L22.8782 17.5542C22.9551 18.1011 22.574 18.6067 22.0271 18.6836L16.9513 19.397C16.8407 20.407 16.35 21.3469 15.5174 22.0307C14.3568 22.9838 12.7608 23.2081 11.3824 22.6118C10.262 22.1271 9.59244 21.5037 9.24077 20.4806L4.20231 21.1887C3.6554 21.2656 3.14974 20.8845 3.07287 20.3376L2.79453 18.3571C2.75795 18.0968 2.82529 17.8327 2.98197 17.6217C3.07045 17.5034 3.80758 16.6279 4.01067 16.3334C4.83528 15.1374 5.15573 13.602 4.78916 10.9937C4.22261 6.96254 6.04497 3.86763 8.79951 2.63013ZM11.3111 20.1896C11.4876 20.4302 11.7536 20.5933 12.1765 20.7762C12.8671 21.0749 13.6667 20.9625 14.2481 20.485C14.5174 20.2639 14.7141 19.9938 14.8345 19.6944L11.3111 20.1896Z" fill="url(#paint0_linear_42_198)"/>
</g>
<defs>
<linearGradient id="paint0_linear_42_198" x1="10.8981" y1="4.16374" x2="21.6593" y2="12.9684" gradientUnits="userSpaceOnUse">
<stop stop-color="#6B73FF"/>
<stop offset="1" stop-color="#2B35FF"/>
</linearGradient>
<clipPath id="clip0_42_198">
<rect width="24" height="24" fill="white"/>
</clipPath>
</defs>
</svg>
