<svg width="32" height="32" viewBox="0 0 32 32" fill="none" xmlns="http://www.w3.org/2000/svg">
<path d="M9.22938 6.00344C9.55628 5.53155 10.0938 5.25 10.6679 5.25H28C28.9665 5.25 29.75 6.0335 29.75 7V25C29.75 25.9665 28.9665 26.75 28 26.75H10.6679C10.0938 26.75 9.55628 26.4685 9.22938 25.9966L2.99451 16.9966C2.57922 16.3971 2.57922 15.6029 2.99451 15.0034L9.22938 6.00344Z" fill="#F2F2F3" stroke="#84898C" stroke-width="0.5"/>
<path d="M18.1317 15.505L18.4853 15.8586L18.8388 15.505L22.3037 12.0402L22.4451 12.1816L18.9803 15.6464L18.6267 16L18.9803 16.3536L22.4451 19.8184L22.3037 19.9598L18.8388 16.495L18.4853 16.1414L18.1317 16.495L14.6669 19.9598L14.5255 19.8184L17.9903 16.3536L18.3439 16L17.9903 15.6464L14.5255 12.1816L14.6669 12.0402L18.1317 15.505Z" fill="#84898C" stroke="#84898C"/>
</svg>
